<?xml version="1.0" encoding="UTF-8"?>
<svg width="123px" height="117px" viewBox="0 0 123 117" version="1.1" xmlns="http://www.w3.org/2000/svg" xmlns:xlink="http://www.w3.org/1999/xlink">
    <title>Group 73</title>
    <g id="Page-1" stroke="none" stroke-width="1" fill="none" fill-rule="evenodd">
        <g id="Group-73" fill="#FFFFFF" transform="translate(0.000000, 0.079000)">
            <path d="M122.3177,69.8531 L120.5837,69.6171 C118.0057,88.4741 106.5307,104.5331 90.5417,113.4141 L91.3957,114.9411 C107.8527,105.7971 119.6647,89.2641 122.3177,69.8531 L122.3177,69.8531 Z M116.6897,69.0881 L114.9567,68.8521 C112.6217,85.9091 102.2367,100.4331 87.7697,108.4591 L88.6237,109.9861 C103.5597,101.6961 114.2807,86.6991 116.6897,69.0881 L116.6897,69.0881 Z M35.6827,108.2971 C21.3527,100.2341 11.0797,85.7761 8.7707,68.8151 L7.0377,69.0531 C9.4227,86.5701 20.0337,101.5021 34.8357,109.8281 L35.6827,108.2971 Z M3.1447,69.5881 L1.4107,69.8261 C4.0427,89.1491 15.7527,105.6191 32.0857,114.7961 L32.9337,113.2661 C17.0717,104.3511 5.7007,88.3551 3.1447,69.5881 L3.1447,69.5881 Z" id="Fill-1"></path>
            <path d="M8.4844,61.7854 C8.4724,60.8524 8.2304,60.1184 7.7564,59.5844 C7.2834,59.0504 6.6064,58.7894 5.7264,58.8004 L5.7404,59.9204 C6.8404,59.9064 7.3984,60.5354 7.4144,61.8094 L7.4174,62.0294 C7.4354,63.4354 6.7744,64.1474 5.4344,64.1644 L3.8944,64.1834 C2.5544,64.2004 1.8754,63.5054 1.8574,62.0994 L1.8554,61.8794 C1.8394,60.6064 2.3804,59.9624 3.4804,59.9484 L3.4664,58.8284 C2.5864,58.8394 1.9164,59.1184 1.4574,59.6644 C0.9974,60.2104 0.7734,60.9494 0.7854,61.8824 L0.7884,62.1224 C0.8004,63.1094 1.0704,63.8894 1.5974,64.4624 C2.1254,65.0364 2.8754,65.3164 3.8484,65.3044 L5.5084,65.2834 C6.4814,65.2714 7.2244,64.9714 7.7374,64.3854 C8.2494,63.7984 8.5004,63.0124 8.4874,62.0254 L8.4844,61.7854 Z" id="Fill-3"></path>
            <path d="M9.0081,53.1998 L8.0051,53.0848 L7.6021,56.6018 L5.3271,56.3418 L5.6611,53.4208 L4.6581,53.3068 L4.3241,56.2278 L2.6651,56.0378 L2.5391,57.1408 L8.4801,57.8198 L9.0081,53.1998 Z M2.5491,52.5618 L1.5451,52.4478 L1.0281,56.9678 L2.0321,57.0828 L2.5491,52.5618 Z" id="Fill-5"></path>
            <path d="M9.4047,51.2377 L6.4637,50.5977 L6.8187,48.9657 L10.0637,48.2087 L10.3347,46.9677 L7.9257,47.5487 C7.5887,47.6257 7.3327,47.6927 7.1597,47.7507 C6.9877,47.8087 6.8387,47.9027 6.7147,48.0317 L6.6177,48.0107 C6.6247,47.7877 6.5957,47.5557 6.5277,47.3157 C6.4607,47.0767 6.3397,46.8637 6.1647,46.6797 C5.9907,46.4947 5.7497,46.3687 5.4437,46.3027 L4.7897,46.1597 C4.1637,46.0237 3.6527,46.1217 3.2567,46.4557 C2.8597,46.7887 2.5857,47.3037 2.4337,48.0007 L1.8407,50.7267 L2.8367,50.9437 L3.4327,48.2077 C3.5147,47.8307 3.6507,47.5597 3.8397,47.3957 C4.0287,47.2327 4.2857,47.1857 4.6117,47.2567 L5.1487,47.3737 C5.4687,47.4437 5.6817,47.5927 5.7887,47.8207 C5.8967,48.0487 5.9087,48.3517 5.8267,48.7287 L5.4667,50.3807 L3.5717,49.9677 L3.3357,51.0527 L9.1687,52.3227 L9.4047,51.2377 Z" id="Fill-7"></path>
            <path d="M11.459,43.8094 L5.828,41.8264 L5.459,42.8734 L11.09,44.8564 L11.459,43.8094 Z M6.111,39.4874 L5.149,39.1484 L3.252,44.5344 L4.214,44.8734 L6.111,39.4874 Z" id="Fill-9"></path>
            <polygon id="Fill-11" points="12.9767 40.0072 6.1057 37.0012 5.6607 38.0182 12.5317 41.0242"></polygon>
            <path d="M14.0128,37.79 L11.3598,36.39 L12.8248,33.613 L11.9318,33.142 L10.4658,35.919 L8.7238,34.999 L8.2058,35.981 L13.4948,38.772 L14.0128,37.79 Z M9.8778,31.719 L8.9848,31.248 L6.8618,35.272 L7.7548,35.743 L9.8778,31.719 Z" id="Fill-13"></path>
            <polygon id="Fill-15" points="16.6913 33.0809 10.3293 29.1089 9.7413 30.0509 16.1033 34.0229"></polygon>
            <path d="M19.3504,29.4382 C19.9184,28.6972 20.1814,27.9712 20.1394,27.2582 C20.0974,26.5462 19.7274,25.9222 19.0294,25.3862 L18.3474,26.2752 C19.2204,26.9442 19.2694,27.7842 18.4954,28.7952 L18.3614,28.9692 C17.5054,30.0862 16.5454,30.2362 15.4824,29.4212 L14.2604,28.4842 C13.1964,27.6692 13.0934,26.7032 13.9484,25.5872 L14.0824,25.4122 C14.8574,24.4012 15.6814,24.2312 16.5544,24.9002 L17.2354,24.0112 C16.5374,23.4762 15.8384,23.2802 15.1394,23.4252 C14.4414,23.5702 13.8074,24.0122 13.2394,24.7532 L13.0934,24.9432 C12.4934,25.7272 12.2234,26.5062 12.2824,27.2832 C12.3424,28.0602 12.7584,28.7442 13.5314,29.3362 L14.8484,30.3462 C15.6214,30.9392 16.3904,31.1632 17.1554,31.0192 C17.9214,30.8752 18.6044,30.4122 19.2044,29.6282 L19.3504,29.4382 Z" id="Fill-17"></path>
            <path d="M19.5844,20.8581 C19.4494,20.5771 19.3074,20.3501 19.1594,20.1771 L19.2294,20.1061 C19.4144,20.2401 19.6564,20.3741 19.9554,20.5071 C20.2534,20.6401 20.5594,20.7761 20.8724,20.9131 L22.3154,21.5401 L20.6804,23.2141 L19.9904,21.7161 C19.8554,21.4251 19.7194,21.1391 19.5844,20.8581 L19.5844,20.8581 Z M21.9794,26.0201 L21.1444,24.2131 L23.3244,21.9801 L25.1444,22.7791 L26.0104,21.8921 L18.5344,18.8131 L17.9124,19.4491 L21.1694,26.8501 L21.9794,26.0201 Z" id="Fill-19"></path>
            <path d="M30.1253,18.614 L29.5353,17.882 L26.4203,20.391 L26.3573,20.313 C26.3593,20.166 26.3683,20.018 26.3843,19.868 C26.4003,19.718 26.4023,19.566 26.3903,19.413 L26.0103,13.505 L25.4213,12.773 L21.3943,16.016 L21.9843,16.748 L25.0993,14.239 L25.1623,14.317 C25.1533,14.444 25.1413,14.575 25.1263,14.711 C25.1123,14.847 25.1093,14.984 25.1183,15.123 L25.5093,21.125 L26.0983,21.857 L30.1253,18.614 Z" id="Fill-21"></path>
            <polygon id="Fill-23" points="31.869 17.4359 27.596 11.2719 26.684 11.9049 30.957 18.0679"></polygon>
            <path d="M35.756,15.1508 C36.623,14.6658 37.181,14.0558 37.431,13.3208 C37.681,12.5858 37.568,11.7928 37.093,10.9438 L36.283,9.4948 C35.808,8.6448 35.192,8.1338 34.435,7.9618 C33.678,7.7888 32.866,7.9448 31.999,8.4298 L31.789,8.5468 C30.928,9.0278 30.371,9.6378 30.119,10.3748 C29.866,11.1108 29.977,11.9048 30.452,12.7538 L31.262,14.2028 C31.737,15.0528 32.355,15.5628 33.115,15.7338 C33.875,15.9048 34.685,15.7498 35.547,15.2678 L35.756,15.1508 Z M32.211,13.6038 L31.459,12.2598 C30.805,11.0898 31.092,10.1628 32.32,9.4758 L32.512,9.3688 C33.74,8.6818 34.681,8.9238 35.335,10.0938 L36.086,11.4378 C36.74,12.6078 36.453,13.5358 35.225,14.2218 L35.033,14.3288 C33.805,15.0158 32.864,14.7738 32.211,13.6038 L32.211,13.6038 Z" id="Fill-25"></path>
            <path d="M40.2979,12.6897 L38.5429,8.0717 C38.4789,7.9037 38.4049,7.7337 38.3219,7.5627 C38.2389,7.3907 38.1519,7.2327 38.0619,7.0887 L38.1549,7.0537 C38.2709,7.1877 38.4069,7.3177 38.5649,7.4427 C38.7239,7.5687 38.9219,7.7107 39.1609,7.8687 L44.1769,11.2147 L45.1769,10.8347 L42.5119,3.8247 L41.5119,4.2047 L43.2819,8.8597 C43.3999,9.1707 43.5439,9.4657 43.7139,9.7437 L43.6209,9.7787 C43.4879,9.6367 43.3469,9.5107 43.1979,9.3997 C43.0489,9.2887 42.8649,9.1607 42.6459,9.0157 L37.6329,5.6797 L36.6329,6.0597 L39.2979,13.0697 L40.2979,12.6897 Z" id="Fill-27"></path>
            <path d="M50.8661,9.2795 L50.6021,8.3045 L47.1851,9.2295 L46.5871,7.0185 L49.4251,6.2505 L49.1611,5.2755 L46.3231,6.0435 L45.8871,4.4315 L44.8151,4.7215 L46.3771,10.4945 L50.8661,9.2795 Z M49.0741,3.0405 L48.8101,2.0655 L44.4181,3.2545 L44.6821,4.2295 L49.0741,3.0405 Z" id="Fill-29"></path>
            <path d="M56.2291,8.5278 C57.2451,8.4378 58.0251,8.1178 58.5681,7.5668 C59.1121,7.0168 59.3391,6.2408 59.2501,5.2378 L59.1191,3.7638 C59.0291,2.7538 58.6691,2.0278 58.0371,1.5858 C57.4051,1.1428 56.5821,0.9668 55.5661,1.0568 L52.7871,1.3038 L52.8771,2.3198 L55.6661,2.0728 C56.3761,2.0088 56.9301,2.1238 57.3281,2.4168 C57.7251,2.7098 57.9551,3.2108 58.0191,3.9218 L58.1391,5.2758 C58.2011,5.9798 58.0631,6.5128 57.7241,6.8738 C57.3841,7.2358 56.8591,7.4478 56.1491,7.5108 L54.4651,7.6608 L54.0281,2.7298 L52.9221,2.8278 L53.4501,8.7748 L56.2291,8.5278 Z" id="Fill-31"></path>
            <polygon id="Fill-33" points="61.7567 8.2383 61.6617 0.7393 60.5517 0.7533 60.6467 8.2523"></polygon>
            <path d="M67.461,8.6278 C68.249,8.7178 68.896,8.5908 69.402,8.2458 C69.908,7.9008 70.2,7.3808 70.28,6.6858 L70.305,6.4668 C70.371,5.8908 70.237,5.4008 69.904,4.9968 C69.571,4.5928 69.04,4.3498 68.312,4.2658 L67.507,4.1738 C67.328,4.1538 67.159,4.1058 67,4.0308 C66.841,3.9558 66.717,3.8368 66.628,3.6758 C66.539,3.5148 66.51,3.2958 66.542,3.0168 L66.562,2.8478 C66.593,2.5698 66.73,2.3408 66.972,2.1608 C67.214,1.9798 67.541,1.9138 67.951,1.9608 L68.269,1.9968 C69.104,2.0918 69.481,2.4908 69.401,3.1928 L70.504,3.3188 C70.585,2.6038 70.437,2.0568 70.057,1.6778 C69.678,1.2988 69.124,1.0678 68.395,0.9848 L68.057,0.9458 C67.567,0.8898 67.132,0.9388 66.752,1.0938 C66.372,1.2478 66.068,1.4718 65.84,1.7638 C65.612,2.0568 65.477,2.3818 65.437,2.7398 L65.406,3.0078 C65.366,3.3588 65.403,3.6958 65.517,4.0168 C65.631,4.3388 65.843,4.6118 66.153,4.8348 C66.463,5.0578 66.893,5.2008 67.443,5.2638 L68.198,5.3508 C68.363,5.3688 68.526,5.4168 68.685,5.4918 C68.844,5.5668 68.972,5.6838 69.068,5.8418 C69.164,6.0008 69.196,6.2158 69.165,6.4878 L69.149,6.6268 C69.105,7.0178 68.947,7.2928 68.677,7.4538 C68.407,7.6138 68.037,7.6668 67.567,7.6128 L67.249,7.5768 C66.295,7.4678 65.866,6.9998 65.96,6.1718 L64.857,6.0458 C64.768,6.8268 64.93,7.4238 65.342,7.8368 C65.754,8.2498 66.348,8.5008 67.123,8.5888 L67.461,8.6278 Z" id="Fill-35"></path>
            <polygon id="Fill-37" points="72.1378 9.2256 73.5488 1.8596 72.4588 1.6506 71.0478 9.0166"></polygon>
            <path d="M75.9192,10.2092 C76.6852,10.4162 77.3432,10.3872 77.8952,10.1222 C78.4472,9.8572 78.8142,9.3872 78.9972,8.7112 L79.0552,8.4992 C79.2062,7.9392 79.1472,7.4342 78.8792,6.9852 C78.6102,6.5362 78.1222,6.2162 77.4142,6.0242 L76.6322,5.8132 C76.4582,5.7662 76.2982,5.6932 76.1522,5.5952 C76.0062,5.4972 75.9012,5.3612 75.8382,5.1882 C75.7742,5.0162 75.7782,4.7942 75.8522,4.5242 L75.8962,4.3602 C75.9692,4.0902 76.1392,3.8842 76.4052,3.7412 C76.6722,3.6002 77.0042,3.5822 77.4032,3.6902 L77.7122,3.7742 C78.5232,3.9932 78.8362,4.4442 78.6512,5.1262 L79.7232,5.4162 C79.9112,4.7212 79.8462,4.1582 79.5282,3.7272 C79.2092,3.2952 78.6962,2.9842 77.9882,2.7922 L77.6602,2.7032 C77.1842,2.5742 76.7462,2.5582 76.3472,2.6542 C75.9492,2.7492 75.6142,2.9252 75.3452,3.1802 C75.0762,3.4352 74.8942,3.7372 74.8002,4.0842 L74.7302,4.3452 C74.6372,4.6862 74.6232,5.0242 74.6882,5.3592 C74.7532,5.6942 74.9222,5.9962 75.1952,6.2632 C75.4682,6.5302 75.8712,6.7362 76.4052,6.8802 L77.1392,7.0792 C77.3002,7.1222 77.4532,7.1932 77.5992,7.2922 C77.7452,7.3902 77.8542,7.5252 77.9252,7.6962 C77.9962,7.8672 77.9962,8.0852 77.9252,8.3482 L77.8882,8.4832 C77.7852,8.8632 77.5892,9.1122 77.2982,9.2302 C77.0072,9.3482 76.6332,9.3452 76.1762,9.2222 L75.8672,9.1382 C74.9402,8.8872 74.5862,8.3602 74.8032,7.5552 L73.7322,7.2662 C73.5262,8.0252 73.5972,8.6402 73.9432,9.1102 C74.2882,9.5802 74.8382,9.9162 75.5912,10.1202 L75.9192,10.2092 Z" id="Fill-39"></path>
            <path d="M81.9013,12.1069 L84.0223,6.5269 L82.9853,6.1319 L80.8633,11.7129 L81.9013,12.1069 Z M86.3543,6.8669 L86.7163,5.9139 L81.3793,3.8849 L81.0163,4.8379 L86.3543,6.8669 Z" id="Fill-41"></path>
            <path d="M88.6149,15.3536 L89.0859,14.4606 L85.9549,12.8086 L87.0239,10.7826 L89.6239,12.1546 L90.0959,11.2616 L87.4949,9.8896 L88.2749,8.4126 L87.2929,7.8946 L84.5019,13.1836 L88.6149,15.3536 Z M91.5549,9.5666 L92.0259,8.6736 L88.0019,6.5506 L87.5309,7.4436 L91.5549,9.5666 Z" id="Fill-43"></path>
            <path d="M95.9641,20.2786 L100.2371,14.1146 L99.3571,13.5056 L94.7131,16.1506 C94.5651,16.2346 94.4051,16.3256 94.2311,16.4246 C94.0571,16.5236 93.8961,16.6206 93.7481,16.7166 C93.6011,16.8136 93.4861,16.9026 93.4051,16.9836 L93.3231,16.9266 C93.3991,16.7356 93.4711,16.4996 93.5401,16.2196 C93.6091,15.9386 93.6641,15.6626 93.7061,15.3916 L94.5171,10.1496 L93.6371,9.5396 L89.3651,15.7036 L90.2441,16.3136 L92.5401,13.0016 C92.7071,12.7606 92.8751,12.5036 93.0431,12.2306 C93.2121,11.9586 93.3431,11.7256 93.4381,11.5306 L93.5201,11.5876 C93.4191,11.8266 93.3251,12.0876 93.2381,12.3716 C93.1501,12.6556 93.0801,12.9536 93.0261,13.2656 L92.3151,17.7486 L93.0141,18.2336 L96.8061,16.0446 C97.1221,15.8576 97.4131,15.6776 97.6791,15.5056 C97.9451,15.3326 98.1731,15.1666 98.3651,15.0076 L98.4471,15.0646 C98.2641,15.2456 98.0701,15.4646 97.8651,15.7196 C97.6601,15.9746 97.4701,16.2286 97.2951,16.4806 L95.0851,19.6686 L95.9641,20.2786 Z" id="Fill-45"></path>
            <path d="M102.124,18.8626 C102.402,18.7206 102.625,18.5736 102.795,18.4216 L102.868,18.4896 C102.738,18.6776 102.61,18.9226 102.484,19.2246 C102.358,19.5266 102.23,19.8356 102.099,20.1516 L101.508,21.6086 L99.795,20.0146 L101.276,19.2896 C101.563,19.1466 101.846,19.0046 102.124,18.8626 L102.124,18.8626 Z M97.021,21.3806 L98.808,20.5026 L101.091,22.6286 L100.336,24.4666 L101.244,25.3116 L104.144,17.7646 L103.492,17.1576 L96.172,20.5896 L97.021,21.3806 Z" id="Fill-47"></path>
            <path d="M104.5948,29.7157 C104.7328,29.8957 104.8758,30.0567 105.0228,30.1997 C105.1708,30.3437 105.3198,30.4747 105.4698,30.5947 L105.2018,31.4937 L105.9558,32.4777 L106.3868,31.0507 C106.7948,31.1667 107.2158,31.1757 107.6498,31.0787 C108.0828,30.9807 108.5168,30.7667 108.9508,30.4337 L110.2678,29.4237 C111.0408,28.8317 111.4578,28.1477 111.5198,27.3747 C111.5808,26.5997 111.3098,25.8187 110.7058,25.0307 L110.5598,24.8407 C109.9588,24.0567 109.2758,23.5937 108.5108,23.4497 C107.7448,23.3057 106.9758,23.5297 106.2038,24.1227 L104.8858,25.1327 C104.1138,25.7247 103.6978,26.4087 103.6378,27.1857 C103.5778,27.9627 103.8488,28.7417 104.4488,29.5257 L104.5948,29.7157 Z M105.6158,25.9847 L106.8378,25.0477 C107.9008,24.2327 108.8608,24.3827 109.7168,25.4997 L109.8498,25.6737 C110.7058,26.7897 110.6028,27.7557 109.5388,28.5717 L108.3168,29.5087 C107.7508,29.9427 107.2158,30.1047 106.7118,29.9957 L107.0288,28.9457 L106.2748,27.9617 L105.8108,29.4767 L105.6218,29.2807 L105.4378,29.0567 L105.3038,28.8817 C104.4478,27.7657 104.5518,26.7997 105.6158,25.9847 L105.6158,25.9847 Z" id="Fill-49"></path>
            <path d="M108.4875,35.7033 C108.9135,36.4653 109.4615,36.9473 110.1325,37.1493 C110.8025,37.3513 111.5335,37.2313 112.3255,36.7883 L116.4975,34.4563 L115.9505,33.4783 L111.8305,35.7823 C110.7775,36.3703 109.9725,36.1673 109.4165,35.1723 L109.2115,34.8063 C108.6555,33.8103 108.9035,33.0193 109.9575,32.4303 L114.0775,30.1273 L113.5305,29.1493 L109.3585,31.4813 C108.5665,31.9243 108.0825,32.4853 107.9045,33.1653 C107.7275,33.8443 107.8495,34.5623 108.2725,35.3193 L108.4875,35.7033 Z" id="Fill-51"></path>
            <path d="M116.176,39.1447 C116.488,39.1327 116.752,39.0927 116.97,39.0257 L117.008,39.1177 C116.81,39.2347 116.591,39.4037 116.35,39.6247 C116.109,39.8457 115.863,40.0717 115.613,40.3037 L114.464,41.3787 L113.579,39.2117 L115.227,39.1757 C115.548,39.1677 115.864,39.1567 116.176,39.1447 L116.176,39.1447 Z M110.487,39.2867 L112.478,39.2407 L113.658,42.1287 L112.201,43.4807 L112.67,44.6287 L118.47,38.9957 L118.134,38.1717 L110.048,38.2127 L110.487,39.2867 Z" id="Fill-53"></path>
            <polygon id="Fill-55" points="113.9844 49.5299 114.9594 49.2659 114.0344 45.8489 120.2994 44.1539 120.0094 43.0819 112.7694 45.0409"></polygon>
            <polygon id="Fill-57" points="114.3787 51.4722 121.7067 49.8772 121.4707 48.7922 114.1427 50.3872"></polygon>
            <path d="M115.0043,55.5134 L120.9163,54.6864 L120.7633,53.5864 L114.8503,54.4144 L115.0043,55.5134 Z M121.7403,56.8934 L122.7503,56.7514 L121.9593,51.0974 L120.9493,51.2384 L121.7403,56.8934 Z" id="Fill-59"></path>
            <path d="M120.6497,60.1705 C120.9447,60.2735 121.2047,60.3335 121.4317,60.3505 L121.4337,60.4505 C121.2067,60.4865 120.9417,60.5635 120.6357,60.6805 C120.3307,60.7975 120.0187,60.9185 119.7007,61.0425 L118.2377,61.6215 L118.2087,59.2815 L119.7557,59.8515 C120.0567,59.9615 120.3547,60.0675 120.6497,60.1705 L120.6497,60.1705 Z M115.3047,58.2175 L117.1737,58.9045 L117.2127,62.0245 L115.3617,62.7475 L115.3777,63.9875 L122.8387,60.8725 L122.8277,59.9825 L115.2897,57.0585 L115.3047,58.2175 Z" id="Fill-61"></path>
            <path d="M121.788,64.8922 L121.688,64.8882 C121.495,64.8812 121.359,64.8092 121.281,64.6732 C121.203,64.5362 121.167,64.3812 121.174,64.2082 L121.179,64.0582 L120.28,64.0242 L120.268,64.3342 C120.263,64.4672 120.288,64.6082 120.342,64.7572 C120.396,64.9062 120.497,65.0352 120.643,65.1442 C120.789,65.2532 120.995,65.3122 121.261,65.3222 L122.89,65.3842 L122.938,64.1252 L121.819,64.0832 L121.788,64.8922 Z" id="Fill-63"></path>
            <path d="M41.106,115.899 L42.216,115.899 L42.216,108.399 L41.106,108.399 L41.106,115.899 Z M46.396,115.999 C47.189,115.999 47.818,115.799 48.281,115.399 C48.744,114.999 48.976,114.449 48.976,113.749 L48.976,113.529 C48.976,112.949 48.788,112.477 48.411,112.114 C48.034,111.75 47.479,111.569 46.746,111.569 L45.936,111.569 C45.756,111.569 45.583,111.54 45.416,111.484 C45.249,111.427 45.113,111.324 45.006,111.174 C44.899,111.024 44.846,110.809 44.846,110.529 L44.846,110.359 C44.846,110.079 44.956,109.835 45.176,109.629 C45.396,109.422 45.713,109.319 46.126,109.319 L46.446,109.319 C47.286,109.319 47.706,109.672 47.706,110.379 L48.816,110.379 C48.816,109.659 48.606,109.132 48.186,108.799 C47.766,108.465 47.189,108.299 46.456,108.299 L46.116,108.299 C45.623,108.299 45.196,108.397 44.836,108.594 C44.476,108.79 44.199,109.047 44.006,109.364 C43.813,109.68 43.716,110.019 43.716,110.379 L43.716,110.649 C43.716,111.002 43.791,111.332 43.941,111.639 C44.091,111.945 44.333,112.192 44.666,112.379 C44.999,112.565 45.443,112.659 45.996,112.659 L46.756,112.659 C46.923,112.659 47.089,112.687 47.256,112.744 C47.423,112.8 47.563,112.902 47.676,113.049 C47.789,113.195 47.846,113.405 47.846,113.679 L47.846,113.819 C47.846,114.212 47.721,114.504 47.471,114.694 C47.221,114.884 46.859,114.979 46.386,114.979 L46.066,114.979 C45.106,114.979 44.626,114.562 44.626,113.729 L43.516,113.729 C43.516,114.515 43.744,115.09 44.201,115.454 C44.658,115.817 45.276,115.999 46.056,115.999 L46.396,115.999 Z M53.536,115.999 C54.529,115.999 55.314,115.739 55.891,115.219 C56.468,114.699 56.756,113.952 56.756,112.979 L56.756,111.319 C56.756,110.345 56.468,109.599 55.891,109.079 C55.314,108.559 54.529,108.299 53.536,108.299 L53.296,108.299 C52.309,108.299 51.526,108.559 50.946,109.079 C50.366,109.599 50.076,110.345 50.076,111.319 L50.076,112.979 C50.076,113.952 50.366,114.699 50.946,115.219 C51.526,115.739 52.309,115.999 53.296,115.999 L53.536,115.999 Z M51.196,112.919 L51.196,111.379 C51.196,110.039 51.899,109.369 53.306,109.369 L53.526,109.369 C54.933,109.369 55.636,110.039 55.636,111.379 L55.636,112.919 C55.636,114.259 54.933,114.929 53.526,114.929 L53.306,114.929 C51.899,114.929 51.196,114.259 51.196,112.919 L51.196,112.919 Z M62.376,108.299 C61.603,108.299 60.989,108.499 60.536,108.899 C60.083,109.299 59.856,109.872 59.856,110.619 L59.856,110.979 C59.856,111.712 60.063,112.277 60.476,112.674 C60.889,113.07 61.449,113.269 62.156,113.269 L62.396,113.269 C62.869,113.269 63.219,113.187 63.446,113.024 C63.673,112.86 63.829,112.645 63.916,112.379 L64.016,112.379 L64.016,112.609 C64.016,113.209 63.936,113.677 63.776,114.014 C63.616,114.35 63.416,114.587 63.176,114.724 C62.936,114.86 62.689,114.929 62.436,114.929 L62.276,114.929 C61.909,114.929 61.641,114.865 61.471,114.739 C61.301,114.612 61.199,114.425 61.166,114.179 L60.066,114.179 C60.099,114.765 60.308,115.215 60.691,115.529 C61.074,115.842 61.589,115.999 62.236,115.999 L62.396,115.999 C62.883,115.999 63.333,115.879 63.746,115.639 C64.159,115.399 64.494,115.037 64.751,114.554 C65.008,114.07 65.136,113.469 65.136,112.749 L65.136,111.009 C65.136,110.135 64.909,109.465 64.456,108.999 C64.003,108.532 63.389,108.299 62.616,108.299 L62.376,108.299 Z M63.656,109.714 C63.896,109.944 64.016,110.299 64.016,110.779 L64.016,111.019 C64.016,111.805 63.546,112.199 62.606,112.199 L62.386,112.199 C61.446,112.199 60.976,111.772 60.976,110.919 L60.976,110.679 C60.976,109.805 61.446,109.369 62.386,109.369 L62.606,109.369 C63.066,109.369 63.416,109.484 63.656,109.714 L63.656,109.714 Z M69.296,115.999 C70.169,115.999 70.858,115.739 71.361,115.219 C71.864,114.699 72.116,113.952 72.116,112.979 L72.116,111.319 C72.116,110.345 71.864,109.599 71.361,109.079 C70.858,108.559 70.169,108.299 69.296,108.299 L69.056,108.299 C68.189,108.299 67.503,108.559 66.996,109.079 C66.489,109.599 66.236,110.345 66.236,111.319 L66.236,112.979 C66.236,113.952 66.489,114.699 66.996,115.219 C67.503,115.739 68.189,115.999 69.056,115.999 L69.296,115.999 Z M67.791,114.434 C67.501,114.104 67.356,113.599 67.356,112.919 L67.356,111.379 C67.356,110.699 67.501,110.194 67.791,109.864 C68.081,109.534 68.506,109.369 69.066,109.369 L69.286,109.369 C69.846,109.369 70.271,109.534 70.561,109.864 C70.851,110.194 70.996,110.699 70.996,111.379 L70.996,112.919 C70.996,113.599 70.851,114.104 70.561,114.434 C70.271,114.764 69.846,114.929 69.286,114.929 L69.066,114.929 C68.506,114.929 68.081,114.764 67.791,114.434 L67.791,114.434 Z M76.276,115.999 C77.149,115.999 77.837,115.739 78.341,115.219 C78.844,114.699 79.096,113.952 79.096,112.979 L79.096,111.319 C79.096,110.345 78.844,109.599 78.341,109.079 C77.837,108.559 77.149,108.299 76.276,108.299 L76.036,108.299 C75.169,108.299 74.482,108.559 73.976,109.079 C73.469,109.599 73.216,110.345 73.216,111.319 L73.216,112.979 C73.216,113.952 73.469,114.699 73.976,115.219 C74.482,115.739 75.169,115.999 76.036,115.999 L76.276,115.999 Z M74.771,114.434 C74.481,114.104 74.336,113.599 74.336,112.919 L74.336,111.379 C74.336,110.699 74.481,110.194 74.771,109.864 C75.061,109.534 75.486,109.369 76.046,109.369 L76.266,109.369 C76.826,109.369 77.251,109.534 77.541,109.864 C77.831,110.194 77.976,110.699 77.976,111.379 L77.976,112.919 C77.976,113.599 77.831,114.104 77.541,114.434 C77.251,114.764 76.826,114.929 76.266,114.929 L76.046,114.929 C75.486,114.929 75.061,114.764 74.771,114.434 L74.771,114.434 Z M81.056,110.684 C81.316,110.534 81.496,110.369 81.596,110.189 L81.696,110.189 L81.696,115.899 L82.806,115.899 L82.806,108.399 L81.916,108.399 C81.796,108.885 81.562,109.247 81.216,109.484 C80.869,109.72 80.486,109.839 80.066,109.839 L80.066,110.909 C80.466,110.909 80.796,110.834 81.056,110.684 L81.056,110.684 Z" id="Fill-65"></path>
            <path d="M47.0038,71.1058 C45.9988,70.6558 44.8018,70.4318 43.4118,70.4318 L38.4888,70.4318 L37.2798,70.4318 L36.2988,70.4318 L36.2988,83.5718 L37.2798,83.5718 L38.4888,83.5718 L43.4118,83.5718 C44.8018,83.5718 45.9988,83.3468 47.0038,82.8968 C48.0078,82.4478 48.7788,81.7698 49.3168,80.8648 C49.8538,79.9598 50.1228,78.8238 50.1228,77.4568 L50.1228,76.5458 C50.1228,75.1798 49.8538,74.0438 49.3168,73.1378 C48.7788,72.2328 48.0078,71.5558 47.0038,71.1058 L47.0038,71.1058 Z M47.9678,77.3868 C47.9678,78.8118 47.5878,79.8688 46.8288,80.5578 C46.0688,81.2478 44.9368,81.5918 43.4298,81.5918 L38.4888,81.5918 L38.4888,72.4108 L43.4298,72.4108 C44.9368,72.4108 46.0688,72.7468 46.8288,73.4188 C47.5878,74.0898 47.9678,75.1558 47.9678,76.6158 L47.9678,77.3868 Z" id="Fill-67"></path>
            <polygon id="Fill-68" points="66.5741 80.6996 56.4121 70.4316 55.2031 70.4316 54.2751 70.4316 54.2751 83.5716 56.4121 83.5716 56.4121 73.3156 66.5741 83.5716 68.7291 83.5716 68.7291 70.4316 66.5741 70.4316"></polygon>
            <polygon id="Fill-69" points="36.283 52.085 87.449 52.085 87.449 39.868 36.283 39.868"></polygon>
            <polygon id="Fill-70" points="36.283 58.193 87.449 58.193 87.449 56.155 36.283 56.155"></polygon>
            <polygon id="Fill-71" points="36.283 64.294 87.449 64.294 87.449 60.224 36.283 60.224"></polygon>
            <polygon id="Fill-72" points="85.1105 70.4313 80.0825 80.7003 75.0535 70.4313 72.5835 70.4313 79.1715 83.5713 80.8705 83.5713 87.4405 70.4313"></polygon>
        </g>
    </g>
</svg>