<svg xmlns="http://www.w3.org/2000/svg" viewBox="0 0 61 53" fill="currentColor" class="svg-logo_footer">
    <path
        d="M35.9619 0H25.0273L0 43.2642L5.45033 52.7396H16.4256L21.3317 44.2585L39.6533 44.2544L44.5621 52.7396H55.5375L61 43.2317L35.9619 0ZM35.3946 15.8893L29.8967 25.3552L22.469 25.3674L35.3742 3.04783L58.6494 43.2358L54.943 49.6863L35.3946 15.8893ZM26.2012 2.03188H33.6113L18.9404 27.4047L29.8967 27.3871L33.6086 33.8051H15.2354L10.3632 42.2225L2.9396 42.2456L26.2012 2.03188ZM12.1275 43.2371L15.8271 36.8435L19.5674 43.2439L15.8407 49.6877L12.1275 43.2371ZM2.9301 44.2761L10.3646 44.2531L14.0791 50.7077H6.6297L2.9301 44.2761ZM40.83 42.2212L21.329 42.2253L17.5955 35.8357H37.1358L31.661 26.3698L35.3919 19.9463L53.1855 50.7077H45.7388L40.83 42.2212Z"
        fill="currentColor" />
</svg>